/* XPM */
static char *Sheet_Cat_Hurt_copy1731342107[] = {
/* columns rows colors chars-per-pixel */
"64 64 4 1 ",
"  c None",
". c #131211",
"X c #FFEB3A",
"o c #D2A9D4",
/* pixels */
"                                                                ",
"                                                                ",
"                                                                ",
"                         ..                                     ",
"                       ....                                     ",
"                      ....                                      ",
"                     .....                                      ",
"           ..      ......    ......                             ",
"           ..      ................                             ",
"           ...    ............                                  ",
"           ....  ..........                                     ",
"            ... .........                                       ",
"            ................                       .            ",
"            ................                       .            ",
"            ..............                         .            ",
"            ...........                       .    .            ",
"          ...........                   ..    .    .            ",
"          ..........                    ..    .   ..            ",
"         ........                 ...   ..    .   ..   ...      ",
"  ...    .......                  ....  ...   ..  ..  ...       ",
"  ................                ..... .... ... ... ....       ",
"    ..............                 ..... ... ...........        ",
"     ..........                    .....................        ",
"      .......               .      .....................        ",
"     .......      ......    ...    ....................         ",
"     ...................     ...    ...................         ",
"    .....................    ...    ........................    ",
"    ..  .................    ....  .......................      ",
"    .   .................    ................XXX..XXX....       ",
"        ........... ....      ...............XXX..XXX...        ",
"        ........   .....  ..  ...............XXX..XXX..         ",
"        ...        .....  ... ...............XXX.ooXX...        ",
"        ..        .....  ........................oo......       ",
"        .         ....  ..................................      ",
"                 ..... ....................................     ",
"                ...........................................     ",
"                ............................................    ",
"                ...................................... .....    ",
"                ......................................   ...    ",
"                ......................................     .    ",
"                 .................................  ..          ",
"                  ................................. ..          ",
"                 ..................................  .          ",
"                 ..................................  .          ",
"                ....................................            ",
"                ....................................            ",
"                 ................................. .            ",
"                 .................................              ",
"                  ...... .........  ....... ......              ",
"                  ......  .......    ......  ......             ",
"                  ......  .......    .....    .....             ",
"                  ......   .....     .....    ......            ",
"                  ......   .....     .....      ....            ",
"                  .....     ....      ....      ....            ",
"                  .....     ...       ...         ...           ",
"                  .....      ..       ...          ..           ",
"                   ....                ..                       ",
"                   ...                 ..                       ",
"                   ...                                          ",
"                    ..                                          ",
"                                                                ",
"                                                                ",
"                                                                ",
"                                                                "
};
