/* XPM */
static char *red_crystal_00021731342177[] = {
/* columns rows colors chars-per-pixel */
"64 64 7 1 ",
"  c None",
". c black",
"X c #420000",
"o c #460000",
"O c #A20000",
"+ c #FF2828",
"@ c #FF8D8D",
/* pixels */
"                                                                ",
"                                                                ",
"                                                                ",
"                                                                ",
"                                                                ",
"                                                                ",
"                                                                ",
"                                                                ",
"                                                                ",
"                              ..                                ",
"                             .X@.                               ",
"                             .X@.                               ",
"                            .oX@@.                              ",
"                            .oX@+.                              ",
"                           .OoX@++.                             ",
"                           .OoX@O+.                             ",
"                          .OOoX@O+@.                            ",
"                          .OOoX+O++.                            ",
"                         .OOOoX+OO+@.                           ",
"                         .OOOoX+OO@@.                           ",
"                        .OOOOoX+OOO@@.                          ",
"                        .O+OOoX+@OO@@.                          ",
"                       .OO+OOoX+@OO@@@.                         ",
"                       .O++OOoX+@OOO@@.                         ",
"                      .OO+++OoX@@OOO@@@.                        ",
"                      .OO+++OoX@@OO@@@@.                        ",
"                     .O+O+++OoX@@@O@@@@@.                       ",
"                     .O+++++OoX@@@O@@@O@.                       ",
"                    .OO+++++OoX@@@@@@OOO@.                      ",
"                    .+++++++Ooo@@O@OOOOO@.                      ",
"                   .++++++++Ooo@@OOOOOO@O@.                     ",
"                   X+++++++oooX@OOOOOOOOO@.                     ",
"                   X++++++Ooooo@OOOOOOOOO@.                     ",
"                   X++++ooooXOOOooXXX@@@@@.                     ",
"                   X++OO++++OOO+OoooooOOoO.                     ",
"                    .+O++++OOOX+OooooooOo.                      ",
"                    .OO++++OOOX+OooooooOO.                      ",
"                     .OO++OOOOX+Oooooooo.                       ",
"                     .OO++OOOOX+Oooooooo.                       ",
"                      .++OOOO+X+Ooooooo.                        ",
"                      .++OO+O+X+OoooOoo.                        ",
"                      .OOOO+O+X+OoooOoo.                        ",
"                       .OO+OO+X+OoooOo.                         ",
"                       .OO+OO+X+OoooOo.                         ",
"                        .O+O++X+OoooO.                          ",
"                        .+OO++X+OoooO.                          ",
"                         .OO++X@OooO.                           ",
"                         .O+++X@OoOO.                           ",
"                          .+++X@OOO.                            ",
"                          .+++X@OOO.                            ",
"                           .++X@OO.                             ",
"                           .++X@OO.                             ",
"                            .+X@O.                              ",
"                            .+X@O.                              ",
"                             .O@.                               ",
"                              ..                                ",
"                                                                ",
"                                                                ",
"                                                                ",
"                                                                ",
"                                                                ",
"                                                                ",
"                                                                ",
"                                                                "
};
