/* XPM */
static char *xpm__16__Space_2x1731341698[] = {
/* columns rows colors chars-per-pixel */
"64 64 139 2 ",
"   c None",
".  c gray8",
"X  c #1B141C",
"o  c #20131E",
"O  c #1F1023",
"+  c #230F28",
"@  c #26142B",
"#  c #2B142E",
"$  c #34172F",
"%  c #2C0C34",
"&  c #320D3A",
"*  c #2D1334",
"=  c #341537",
"-  c #381032",
";  c #36113D",
":  c #3C1738",
">  c #3E1838",
",  c #450F3C",
"<  c #42143A",
"1  c #3A0745",
"2  c #360A40",
"3  c #390845",
"4  c #3E0949",
"5  c #3A1244",
"6  c #3E1249",
"7  c #41054F",
"8  c #431243",
"9  c #4A1447",
"0  c #43144A",
"q  c #4F174E",
"w  c #4C1849",
"e  c #58134C",
"r  c #541A4C",
"t  c #450454",
"y  c #4C035D",
"u  c #451152",
"i  c #4C1652",
"p  c #4C125B",
"a  c #551952",
"s  c #5E1B53",
"d  c #610B54",
"f  c #690B59",
"g  c #641356",
"h  c #500063",
"j  c #520A62",
"k  c #590B60",
"l  c #57046B",
"z  c #5A046D",
"x  c #560D68",
"c  c #5B0F6D",
"v  c #551165",
"b  c #5B1663",
"n  c #5C1369",
"m  c #5D0671",
"M  c #5E0C72",
"N  c #5E1172",
"B  c #600D64",
"V  c #64076F",
"C  c #61086A",
"Z  c #63166C",
"A  c #731D64",
"S  c #7E1E6D",
"D  c #610673",
"F  c #6A0273",
"G  c #630976",
"H  c #6B0973",
"J  c #640B7A",
"K  c #6A0B7F",
"L  c #710077",
"P  c #750F76",
"I  c #7E017C",
"U  c #750D7F",
"Y  c #780E7F",
"T  c #611374",
"R  c #6A1177",
"E  c #67127C",
"W  c #6F157B",
"Q  c #73177E",
"!  c #7B197E",
"~  c #81096D",
"^  c #8C0A76",
"/  c #80107F",
"(  c #831979",
")  c #8A1B7D",
"_  c #93207F",
"`  c #6C0E83",
"'  c #6F0D88",
"]  c #750E85",
"[  c #710F8A",
"{  c #6B1082",
"}  c #7B1787",
"|  c #7E1887",
" . c #73118B",
".. c #7E118F",
"X. c #771191",
"o. c #7A1294",
"O. c #8B0086",
"+. c #990486",
"@. c #9B008F",
"#. c #8C1486",
"$. c #861A87",
"%. c #971B83",
"&. c #931E88",
"*. c #9F1E8A",
"=. c #821393",
"-. c #8A1494",
";. c #85159A",
":. c #8D179E",
">. c #8B1898",
",. c #911796",
"<. c #9C1A95",
"1. c #951A9B",
"2. c #A6058B",
"3. c #A10C88",
"4. c #A4188C",
"5. c #AB0D91",
"6. c #B20494",
"7. c #B4019E",
"8. c #A61496",
"9. c #A21B93",
"0. c #A91D97",
"q. c #B71C9D",
"w. c #9D2188",
"e. c #AC219B",
"r. c #B3239B",
"t. c #9318A1",
"y. c #9D1BA2",
"u. c #BD00A3",
"i. c #A51DA2",
"p. c #AB1FA2",
"a. c #B421A3",
"s. c #BD24A3",
"d. c #C508A5",
"f. c #CB01A9",
"g. c #D107AF",
"h. c #D009AE",
"j. c #C31CA7",
"k. c #C913AA",
"l. c #D600B2",
/* pixels */
"                                        l h h h h h h h h h h h h h h h h h h h h h h h                                         ",
"                                        h h h h h h h h h h h h h h h h h h h h h h h h                                         ",
"                                        h h h h h h h h h h h h h h h h h h h h h h h h                                         ",
"                                        h h h h l l l l l l l l l m l m z m z l h h h h                                         ",
"                        h h h h h h h h h h h l m J J J J M J ` ' ' ' ' ' ' ' { z h h h h h h h h h h h                         ",
"                        h h h h h h h h h h h l J { { J M v v N ' o.o.o.o.o.o.' z h h h h h h h h h h h                         ",
"                        h h h h h h h h h h h l J { { c 5 * @ 6 E o.o.o.o.o.o.' z h h h h h h h h h h h                         ",
"                        h h h h l l l l l l l l x c J M 6 @ X * T o.o. .E E  .' J D D D D D G z h h h h                         ",
"                h h h h h h h l m { { m { m { h 2 5 x { { p @ * T o.o.E 0 6 { o.o.=.=.=.o.=.=.] z h h h h h h h                 ",
"                h h h h h h h l m ` { { ` ` { x 6 5 x { { M 6 6 E o.o.E 6 5 b N Q | >.t.t.t.1.=.D h h h h h h h                 ",
"                h h h h h h h l M ` { { ` { ` m x x l l l l l {  .o.o. .W v 5 * = i } t.t.t.t.=.D h h h h h h h                 ",
"                h h h h l l l m { { c c { { ` ` ' { l h h l ` ' o.o.o.o.o.E * . . # b } >.t.t.>.K D D V h h h h                 ",
"        h h h h h h h l m J J J { x 5 5 c { { ' ' { l h h l l {  .o.o.o.;.Q = . . X # i } t.t.>.-.=.=.] z h h h h h h h         ",
"        h h h h h h h l J ` ` ` { x 5 2 p x v N  . .{ l h h h l `  .o.;.:.] = X # = = i } t.t.t.t.t.t.=.D h h h h h h h         ",
"        h h h h h h h l G ` ` ` { { N p 2 @ @ 6 { X.' ` l l h l l m [ o.:.Q = # b Q Q } >.t.t.t.t.t.t.=.D h h h h h h h         ",
"        h h h h l l l x x x v v v x { v @ . . @ u { ' ' l y t t y m [ ;.:.} i i } >.} } >.t.t.t.t.t.t.=.` D D m h h h h         ",
"        h h h l m J J x 5 # @ * @ 5 c v * . . O @ 6 {  .c 6 % % t z o.t.t.>.} } >.} i i | t.t.t.t.t.t.:.=.=.=.] z h h h         ",
"        h h h l J ` ` x # . . O O 5 c c 5 * * * * 6 { { { j 2 % 1 j ] =.:.t.t.t.t.} i 0 Z Q Q Q Q } >.t.t.t.t.=.D h h h         ",
"        h h h l J ` { x @ . . O u c E { E T N N T {  . .' { t 3 % & y W ;.1.1.t.t.>.} Z 0 = = = = i } t.t.t.1.=.D h h h         ",
"        h h h l M { { c 5 O O * c [ ` { E N N E  .o.o.{ { x h 4 + + t m =.>.} } >.>.| b # . . X # i } y.y.y.y.=.D h h h         ",
"h h h h h h h l J ` ` J c u @ * T  .X.E 6 * * 6 { X.X.{ 6 3 y 4 + + 7 D =.} i q } } i # X . . # b } >.y.p.a.a.<.H h h h h h h h ",
"h h h h h h h l J { ` ` { c 5 6 E  .{ p @ O @ 6 { o.X.{ % + 4 t + + 7 l R Z 0 0 Z b # X # = = 0 Z } -.y.a.s.s.9.H h h h h h h h ",
"h h h h h h h l J ` ` ` { J c N  .E 0 @ X @ p {  .X.X.{ * + t 4 + + 7 t 2 0 Z Z w # X # b Q Q Z 0 i } y.a.s.s.9.H h h h h h h h ",
"h h h h l l l m J { { ` ` ' `  . .T * . . * T o.X. .{ p 2 % 3 3 % & t 7 @ = Q Q = . . = Q t.t.| a a $.i.a.r.w.) P H H V l h h h ",
"h h h h m J J J ` ` ` ` X.X.X.X.o.T * . . * N o.o.{ 5 5 3 3 % % 3 t y t + = Q Q = . . = Q 1.t.1.&.w.e.a.s.w.s r ) 4.9.#.V h h h ",
"h h h l J { { { ` J c M ` o.o. .E v 5 * * 5 v N { p @ X t 4 + + 7 y t & O # b Z 0 = = i } t.t.y.a.r.0.9.9.) r r S w.r.9.H h h h ",
"h h h l J { { { { c 5 6 E o.o.E 0 5 b T N v 2 2 2 @ X O 4 t + + 7 t & O X X # 0 Z Q Q } >.t.t.y.a.0./ H H P ) S r s w.9.H h h h ",
"h h h l J J c v v p 2 6 E o.o.E 6 6 N { ' N 2 + O O . @ t 4 + O & 1 % + + + + & n Q Q $.1.1.-.-.<.#.C h h C ( A $ > _ 9.H h h h ",
"h h h l J n 2 * @ 2 p N  .o.o.X.{ N M m l l y 4 6 2 O O 4 4 + . O % 3 7 7 7 7 4 ; = = a &.<.U D H D l h h y 8 $ X > _ 9.H h h h ",
"h h h l J x # . . * v ' X.X.' ' { { y 4 4 4 4 4 y t 2 % 3 3 O . . + & 7 7 7 7 1 % + + 8 ( #.k t y h h l G k 9 < < s w.9.H h h h ",
"h h h l J v * . . * v ' X.' M z c y 2 + % + + 2 t h t 3 % O X . . . + + + + + % 1 7 7 t C k - & t h h C #.*.w._ _ w.r.9.H y h h ",
"h h h l J c 5 # * 5 N ` ` { z h 4 4 % + + + + % 3 4 4 3 O . . . . . . . O + + % 1 7 7 7 7 1 % % t l V / 0.s.s.s.j.j.j.8.F h h h ",
"h h h l J J n c N E ' ' G l h t % % 1 4 7 7 7 3 % + + + X . . . . . . O & 7 7 1 # + + + + % 1 t y V #.0.r.s.s.j.k.h.h.7.L h h h ",
"h h h l J ` ` ' X.o.' ` l h h t & & y l t 7 7 3 % + + + O O X . . X O % 1 t y t & + + + + & k H H / 0.s.s.r.w.4.d.l.l.7.L h h h ",
"h h h l J { ` { X.' m z l h h h t y J N 5 + + % 3 4 4 t 4 1 O . . + & 1 % % t y t 7 7 7 7 k #.9.9.0.r.s.s.w.g g 6.l.l.7.L h h h ",
"h h h l J ' '  .X.' m h h h l z z m M b 5 = = ; 4 4 t 4 4 1 % O . + t 7 + O & t 7 t C C H / 0.s.s.r.w._ _ S e f 6.l.l.7.L h h h ",
"h h h m ` X.X.X.o.' m h h l ` ' ' N 6 6 Z Q Q n 3 + + + + % 1 1 o + 7 7 + . O + @ < ( e.9.e.r.s.s.w.s > > e ^ 6.f.l.l.7.L h h h ",
"h h h z ' o.o. .E N m z m J ' o.o.N * # b } >.} p # X . O % t 4 + + 7 7 + O * = > r S w.r.s.s.r.w.A $ . . < 2.l.l.l.l.7.L h h h ",
"h h h z ' o.o.E u 6 N ' {  .o.o.o.T * X # i } >.} b * O 3 t h 4 + + 7 7 + # b ! _ A r s w.s.s.w.g $ X . . , 2.l.l.l.g.7.L h h h ",
"h h h l { ' ' N 6 6 E o.;.o.;.o.;.T = . . # b } >.Q = + 4 y t 3 % % 3 7 ; 0 Z ! ) ( r s w.s.s.w.s > > $ o < 2.g.u.7.7.@.F h h h ",
"h h h h l m z m M E  .o.;.:.:.:.:.W = . . X # i } Q = + 4 t % % 1 3 % = Z Z 8 = > r S w.r.s.s.r.w._ _ A $ , 2.u.O.L L F l h h h ",
"h h h h h h h z [ o.o.;.:.>.} } >.} i = = = = 0 Z Z 0 5 t t + + 7 7 + = Q Q = . . $ A w.r.s.s.s.s.s.s.*.g f 6.7.L h h h h h h h ",
"h h h h h h h z { o.o.;.:.} i i } >.} Q Q Q Q Z w 0 Z H z t + + 7 7 + = Q Q = . . X $ s w.r.s.s.s.s.s.q.5.6.f.7.L h h h h h h h ",
"h h h h h h h m  .;.o.;.t.} i 0 Z Q Q } >.t.t.} i i } =.G 4 + + 7 y 2 0 Z Z w > < > > s w.r.w._ _ w.q.k.g.l.l.7.L h h h h h h h ",
"        h h h m ..:.:.:.t.>.} Z 0 = = i } t.t.>.} } >.=.D 7 + + 7 x G Z 0 w S _ _ _ _ w.r.w.s > > g 5.h.l.l.l.7.L h h h         ",
"        h h h m =.t.t.t.t.t.t.Q = . . # b } >.>.} | >.=.K j & * 1 j U Q q s w.s.s.s.s.s.s._ > . . - ~ 6.f.l.l.7.L h h h         ",
"        h h h G =.1.t.t.t.t.t.Q = . . X # i } } i i | >.=.Y h 1 % & j P ( w.r.s.s.s.s.s.s._ < . . o - f 6.l.l.7.L h h h         ",
"        h h h m ] =.o.>.>.t.t.| i = = = = i } Q = # b } >.=.D t % % t H 9.s.s.r.w._ _ w.r.%.< o - , , d +.7.7.@.F h h h         ",
"        h h h l z D D K ;.t.t.>.} Q Q Q Q } >.Q = X # i } =.D y t t y H 9.s.s.w.s > > g 5.3.< - ~ 2.2.+.I L L F h h h h         ",
"        h h h h h h h D =.1.t.t.t.t.t.t.t.t.t.Q = . . # b W G z l h h C #.0.r._ > X $ g 6.6.f f 6.l.l.7.L h h h h h h h         ",
"        h h h h h h h D =.t.t.t.t.t.t.t.t.t.t.Q = . . X # 9 W ] z h h l G / e._ > $ A 4.d.f.6.6.f.l.l.7.L h h h h h h h         ",
"        h h h h h h h z ] =.=.=.:.t.t.t.t.t.t.| i * X o = a $.,.Y V l h h H 8.9.g g 4.k.l.l.l.f.d.7.7.@.F h h h h h h h         ",
"                h h h h z D D U =.t.t.t.t.t.t.>.} b # $ A *.e.r.0.#.C h h L 6.d.6.6.d.g.l.l.l.u.O.L F F l h h h                 ",
"                h h h h h h h D =.t.t.t.t.t.t.t.t.} i a *.s.r.r.w.) P L F I +.6.d.l.l.l.l.l.l.7.L h h h h h h h                 ",
"                h h h h h h h D =.1.t.1.t.t.:.t.t.>.} $.e.s.s.w.g r ) 8.7.+.d f 6.l.l.l.l.l.l.7.L h h h h h h h                 ",
"                h h h h h h h z ] =.=.=.=.=.=.-.1.i.y.i.a.r.w.A $ < _ k.g.6.f d +.7.7.u.7.7.7.@.F h h h h h h h                 ",
"                        h h h h z D D D D D D Y <.a.a.a.s.w.s $ o < 3.l.l.d.6.+.I L L L L L L F l h h h                         ",
"                        h h h h h h h h h h h H 9.s.s.s.s.*.s > < f 6.l.l.l.l.7.L h h h h h h y h h h h                         ",
"                        h h h h h h h h h h h H 9.s.s.s.s.r.w.%.3.5.f.l.l.l.l.7.L h h h h h h h h h h h                         ",
"                        h h h h h h h h h h h V #.9.9.9.4.<.9.8.6.u.7.7.7.7.7.@.F h h h h h h h h h h h                         ",
"                                        h h h h G H H H H H H H L L L L L L L F l h h h                                         ",
"                                        h h h h h h h h h h h h h h h h h h h h h h h h                                         ",
"                                        h h h h h h h h h h h h h h h h h h h h h h h h                                         ",
"                                        h h h h h h h h h h h h h h h h h h h h h h h h                                         "
};
